<?xml version="1.0" encoding="utf-8"?>
<!-- Generator: Adobe Illustrator 26.2.0, SVG Export Plug-In . SVG Version: 6.00 Build 0)  -->
<svg version="1.1" id="레이어_1" xmlns="http://www.w3.org/2000/svg" xmlns:xlink="http://www.w3.org/1999/xlink" x="0px"
	 y="0px" viewBox="0 0 256 50" style="enable-background:new 0 0 256 50;" xml:space="preserve">
<style type="text/css">
	.st0{fill:url(#SVGID_1_);}
	.st1{fill:#FFFFFF;}
</style>
<linearGradient id="SVGID_1_" gradientUnits="userSpaceOnUse" x1="6.9383" y1="-19.0629" x2="249.0617" y2="69.0629" gradientTransform="matrix(1 0 0 -1 0 50)">
	<stop  offset="0" style="stop-color:#5A00B2"/>
	<stop  offset="0.1231" style="stop-color:#A72FE3"/>
	<stop  offset="0.4347" style="stop-color:#FF9426"/>
	<stop  offset="0.6156" style="stop-color:#FF555D"/>
	<stop  offset="0.8593" style="stop-color:#9427FF"/>
	<stop  offset="1" style="stop-color:#5A00B2"/>
</linearGradient>
<rect class="st0" width="256" height="50"/>
<g>
	<g>
		<path class="st1" d="M28.3,10.4c4.8,0,9.6,0,14.4,0c0.1,0,0.1,0,0.3,0c0.9,0.1,1.6,0.3,2.3,0.6c3.2,1.5,4.9,4.1,4.9,7.5
			c0,4.4,0,8.7,0,13.1c0,1.7-0.4,3.2-1.5,4.6c-1.6,2.3-3.9,3.5-6.8,3.5c-4.4,0-8.6,0-12.9,0c-0.6,0-1.2,0-1.6-0.1
			c-3.3-0.7-5.5-2.8-6.4-6.1c-0.1-0.4-0.1-0.9-0.3-1.3c0-4.8,0-9.6,0-14.4c0-0.3,0.1-0.6,0.1-0.9c0.7-3.3,2.8-5.5,6.1-6.4
			C27.4,10.5,27.8,10.5,28.3,10.4z M47.6,25.1c0-2.2,0-4.2,0-6.4c0-0.7,0-1.3-0.3-2c-0.9-2.3-2.9-3.8-5.4-3.8c-4.4,0-8.6,0-12.9,0
			c-0.6,0-1.3,0.1-1.9,0.3c-2.3,0.7-3.8,2.8-3.8,5.4c0,4.2,0,8.6,0,12.8c0,0.6,0.1,1.3,0.3,1.9c0.7,2.3,2.8,3.8,5.4,3.8
			c4.4,0,8.6,0,12.9,0c1.9,0,3.5-0.7,4.6-2.3c0.7-1,1-2.2,1-3.3C47.6,29.4,47.6,27.2,47.6,25.1z"/>
		<path class="st1" d="M35.5,32.7c-4.2,0-7.5-3.5-7.5-7.5c0-4.2,3.5-7.5,7.5-7.5c4.2,0,7.5,3.5,7.5,7.5
			C43.1,29.2,39.6,32.7,35.5,32.7z M40.5,25.1c0-2.8-2.2-4.9-4.9-4.9c-2.8,0-4.9,2.2-4.9,4.9s2.2,4.9,4.9,4.9
			C38.1,30.1,40.5,27.9,40.5,25.1z"/>
		<path class="st1" d="M43.4,15.3c1,0,1.9,0.9,1.9,1.9s-0.9,1.9-1.9,1.9s-1.9-0.9-1.9-1.9S42.3,15.3,43.4,15.3z"/>
	</g>
	<g>
		<path class="st1" d="M76,27.9V31H58.8v-3.1h6.9v-2.7h-6.2v-3.1h2.6V18h-2.4v-3.1h15.4V18h-2.4v4.1h2.6v3.1h-6.2v2.7
			C69.1,27.9,76,27.9,76,27.9z M65.5,22.1h3.8V18h-3.8V22.1z"/>
		<path class="st1" d="M95.3,27.9V31H78v-3.1h6.9V26h-6V14.9h15.4v2.9h-12V19h11.8v2.8H82.3v1.3h12.2V26h-6.2v1.9
			C88.3,27.9,95.3,27.9,95.3,27.9z"/>
		<path class="st1" d="M99.7,24.3c-0.8,0.5-1.6,0.8-2.5,0.8V22c0.6-0.1,1.1-0.4,1.6-1s0.9-1.5,1.1-2.6s0.4-2.3,0.4-3.8l3.2,0.1
			c0,1.5-0.2,3-0.5,4.4l3.7,3.6v-2.9h-2.1v-3.1h2.1v-2.2h3.1v12.3h-3.1V23l-2.1,2l-2.8-2.9C101.2,23.1,100.5,23.8,99.7,24.3z
			 M114.4,28.6v3H98.5v-5.7h3.4v2.6L114.4,28.6L114.4,28.6z M114.2,27.2H111V14.5h3.2V27.2z"/>
		<path class="st1" d="M123.8,27.7c0.8,0,1.6-0.1,2.4-0.2s1.5-0.3,2-0.6V30c-0.5,0.3-1.2,0.5-2,0.6s-1.6,0.2-2.5,0.2h-6.6V14.9h9.8
			V18h-6.4v3.2h5.6v3.1h-5.6v3.4H123.8z M133.1,14.5v17.1h-3.4V24h-2.4v-3.2h2.4v-6.3C129.7,14.5,133.1,14.5,133.1,14.5z"/>
		<path class="st1" d="M149.8,15.2c0.8,0.4,1.5,1,2,1.8s0.7,1.7,0.7,2.7s-0.2,1.9-0.7,2.7c-0.5,0.8-1.1,1.4-2,1.8
			c-0.8,0.4-1.8,0.6-2.9,0.6s-2.1-0.2-2.9-0.6s-1.5-1-2-1.8s-0.7-1.7-0.7-2.7s0.2-1.9,0.7-2.7c0.5-0.8,1.1-1.4,2-1.8
			s1.8-0.6,2.9-0.6S149,14.8,149.8,15.2z M146.2,28.6h11.9v3h-15.3v-6h3.4L146.2,28.6L146.2,28.6z M145.2,18c-0.4,0.4-0.6,1-0.6,1.7
			s0.2,1.3,0.6,1.7s1,0.6,1.6,0.6s1.2-0.2,1.6-0.6s0.6-1,0.6-1.7s-0.2-1.3-0.6-1.7s-1-0.6-1.6-0.6S145.7,17.6,145.2,18z M157.8,27.2
			h-3.4V14.5h3.4V27.2z"/>
		<path class="st1" d="M160.5,27.8h17.3V31h-17.3V27.8z M165.4,24.2c-1.4,0.8-2.9,1.2-4.5,1.2v-3.2c1.1,0,2.2-0.3,3.2-1
			s1.9-1.6,2.6-2.8c0.7-1.2,1.2-2.5,1.4-4l3.4,0.5c-0.2,1.2-0.5,2.3-0.9,3.4l7.3,4.4l-1.8,2.7l-7-4.5
			C168.1,22.4,166.8,23.5,165.4,24.2z"/>
		<path class="st1" d="M187.2,27.7c0.8,0,1.6-0.1,2.4-0.2c0.8-0.1,1.5-0.3,2-0.6v3c-0.5,0.3-1.2,0.5-2,0.6s-1.7,0.2-2.5,0.2h-6.7
			V14.9h9.9V18h-6.6v3.2h6.3v3.1h-6.3v3.4H187.2z M197.8,24h-2v7.6h-3.4V14.5h3.4v6.2h2V24z"/>
		<path class="st1" d="M216.3,31H199v-3.2h17.3V31z M215.4,26.7h-3.6V18h-11.9v-3.2h15.4v11.9H215.4z"/>
		<path class="st1" d="M225,24.2c-0.7,0.1-1.5,0.2-2.3,0.2h-4.1v-6h4.5v-1.1h-4.5v-2.6h7.6v6h-4.5v1.1h1.2c0.8,0,1.5,0,2.2-0.1
			s1.3-0.2,1.7-0.4v2.5C226.3,23.9,225.7,24.1,225,24.2z M219.5,25.2h15.7v6.4h-15.7V25.2z M222.9,29h9.1v-1.2h-9.1V29z M235.3,14.5
			v10.1h-3.2v-4h-1.4v3.8h-3.1v-9.9h3.1v3h1.4v-3.1h3.2V14.5z"/>
	</g>
</g>
</svg>
